Pacifico-Regular.ufo
<glyph name="zero" format="1">
  <advance width="417"/>
  <unicode hex="0030"/>
  <outline>
    <contour>
      <point x="326" y="276" type="curve" smooth="yes"/>
      <point x="323" y="159"/>
      <point x="292" y="47"/>
      <point x="198" y="64" type="curve" smooth="yes"/>
      <point x="148" y="74"/>
      <point x="130" y="120"/>
      <point x="132" y="203" type="curve" smooth="yes"/>
      <point x="136" y="341"/>
      <point x="176" y="431"/>
      <point x="260" y="421" type="curve" smooth="yes"/>
      <point x="315" y="415"/>
      <point x="329" y="354"/>
    </contour>
    <contour>
      <point x="192" y="-7" type="curve" smooth="yes"/>
      <point x="329" y="-21"/>
      <point x="412" y="120"/>
      <point x="412" y="291" type="curve" smooth="yes"/>
      <point x="412" y="396"/>
      <point x="374" y="491"/>
      <point x="263" y="495" type="curve" smooth="yes"/>
      <point x="112" y="500"/>
      <point x="44" y="337"/>
      <point x="44" y="188" type="curve" smooth="yes"/>
      <point x="44" y="83"/>
      <point x="89" y="4"/>
    </contour>
  </outline>
</glyph>
<glyph name="A" format="1">
  <advance width="684"/>
  <unicode hex="0041"/>
  <outline>
    <contour>
      <point x="288" y="-60" type="curve" smooth="yes"/>
      <point x="376" y="-60"/>
      <point x="459" y="18"/>
      <point x="485" y="86" type="curve"/>
      <point x="485" y="86"/>
      <point x="480" y="51"/>
      <point x="483" y="24" type="curve" smooth="yes"/>
      <point x="488" y="-18"/>
      <point x="508" y="-50"/>
      <point x="550" y="-56" type="curve" smooth="yes"/>
      <point x="600" y="-63"/>
      <point x="663" y="-33"/>
      <point x="692" y="1" type="curve" smooth="yes"/>
      <point x="697" y="7"/>
      <point x="699" y="14"/>
      <point x="699" y="20" type="curve" smooth="yes"/>
      <point x="699" y="39"/>
      <point x="682" y="55"/>
      <point x="667" y="55" type="curve" smooth="yes"/>
      <point x="664" y="55"/>
      <point x="660" y="55"/>
      <point x="656" y="51" type="curve" smooth="yes"/>
      <point x="635" y="32"/>
      <point x="595" y="8"/>
      <point x="573" y="16" type="curve" smooth="yes"/>
      <point x="563" y="20"/>
      <point x="557" y="26"/>
      <point x="557" y="52" type="curve" smooth="yes"/>
      <point x="557" y="75"/>
      <point x="562" y="110"/>
      <point x="572" y="161" type="curve" smooth="yes"/>
      <point x="642" y="478" type="line" smooth="yes"/>
      <point x="643" y="480"/>
      <point x="643" y="483"/>
      <point x="643" y="485" type="curve" smooth="yes"/>
      <point x="643" y="507"/>
      <point x="618" y="522"/>
      <point x="595" y="522" type="curve" smooth="yes"/>
      <point x="578" y="522"/>
      <point x="566" y="515"/>
      <point x="563" y="499" type="curve" smooth="yes"/>
      <point x="499" y="217" type="line" smooth="yes"/>
      <point x="475" y="111"/>
      <point x="403" y="17"/>
      <point x="300" y="17" type="curve" smooth="yes"/>
      <point x="204" y="17"/>
      <point x="151" y="82"/>
      <point x="156" y="198" type="curve" smooth="yes"/>
      <point x="166" y="456"/>
      <point x="339" y="618"/>
      <point x="524" y="616" type="curve" smooth="yes"/>
      <point x="589" y="615"/>
      <point x="655" y="594"/>
      <point x="716" y="550" type="curve"/>
      <point x="724" y="543"/>
      <point x="733" y="541"/>
      <point x="740" y="541" type="curve" smooth="yes"/>
      <point x="758" y="541"/>
      <point x="772" y="556"/>
      <point x="772" y="575" type="curve" smooth="yes"/>
      <point x="772" y="583"/>
      <point x="770" y="595"/>
      <point x="759" y="604" type="curve" smooth="yes"/>
      <point x="693" y="667"/>
      <point x="611" y="695"/>
      <point x="527" y="697" type="curve" smooth="yes"/>
      <point x="302" y="701"/>
      <point x="59" y="505"/>
      <point x="59" y="197" type="curve" smooth="yes"/>
      <point x="58" y="30"/>
      <point x="138" y="-60"/>
    </contour>
    <contour>
      <point x="541" y="-46" type="move" name="ogonek"/>
    </contour>
    <contour>
      <point x="532" y="671" type="move" name="top"/>
    </contour>
  </outline>
</glyph>
<glyph name="B" format="1">
  <advance width="616"/>
  <unicode hex="0042"/>
  <outline>
    <contour>
      <point x="206" y="-79" type="curve" smooth="yes"/>
      <point x="386" y="-79"/>
      <point x="581" y="45"/>
      <point x="581" y="175" type="curve" smooth="yes"/>
      <point x="581" y="247"/>
      <point x="509" y="296"/>
      <point x="437" y="308" type="curve"/>
      <point x="575" y="320"/>
      <point x="632" y="404"/>
      <point x="640" y="468" type="curve" smooth="yes"/>
      <point x="661" y="615"/>
      <point x="532" y="689"/>
      <point x="376" y="691" type="curve" smooth="yes"/>
      <point x="256" y="692"/>
      <point x="121" y="650"/>
      <point x="28" y="565" type="curve" smooth="yes"/>
      <point x="-2" y="538"/>
      <point x="43" y="471"/>
      <point x="96" y="516" type="curve" smooth="yes"/>
      <point x="165" y="575"/>
      <point x="274" y="610"/>
      <point x="366" y="609" type="curve" smooth="yes"/>
      <point x="460" y="607"/>
      <point x="537" y="568"/>
      <point x="537" y="477" type="curve" smooth="yes"/>
      <point x="537" y="424"/>
      <point x="497" y="336"/>
      <point x="345" y="338" type="curve" smooth="yes"/>
      <point x="313" y="339" type="line" smooth="yes"/>
      <point x="289" y="339"/>
      <point x="270" y="333"/>
      <point x="270" y="313" type="curve" smooth="yes"/>
      <point x="269" y="259"/>
      <point x="476" y="302"/>
      <point x="476" y="170" type="curve" smooth="yes"/>
      <point x="476" y="83"/>
      <point x="349" y="-10"/>
      <point x="199" y="-10" type="curve" smooth="yes"/>
      <point x="163" y="-10"/>
      <point x="164" y="0"/>
      <point x="164" y="22" type="curve" smooth="yes"/>
      <point x="164" y="166"/>
      <point x="195" y="403"/>
      <point x="260" y="489" type="curve"/>
      <point x="249" y="506"/>
      <point x="237" y="514"/>
      <point x="219" y="514" type="curve" smooth="yes"/>
      <point x="125" y="514"/>
      <point x="70" y="264"/>
      <point x="70" y="-19" type="curve" smooth="yes"/>
      <point x="70" y="-56"/>
      <point x="123" y="-79"/>
    </contour>
    <contour>
      <point x="392" y="671" type="move" name="top"/>
    </contour>
  </outline>
</glyph>
<glyph name="H" format="1">
  <advance width="767"/>
  <unicode hex="0048"/>
  <outline>
    <contour>
      <point x="760" y="-71" type="curve" smooth="yes"/>
      <point x="787" y="-53"/>
      <point x="759" y="1"/>
      <point x="733" y="-10" type="curve" smooth="yes"/>
      <point x="641" y="-47"/>
      <point x="467" y="-149"/>
      <point x="534" y="130" type="curve" smooth="yes"/>
      <point x="597" y="390" type="line" smooth="yes"/>
      <point x="646" y="596"/>
      <point x="812" y="605"/>
      <point x="797" y="498" type="curve" smooth="yes"/>
      <point x="781" y="382"/>
      <point x="619" y="223"/>
      <point x="126" y="283" type="curve" smooth="yes"/>
      <point x="86" y="288"/>
      <point x="60" y="223"/>
      <point x="110" y="217" type="curve" smooth="yes"/>
      <point x="671" y="146"/>
      <point x="868" y="359"/>
      <point x="878" y="506" type="curve" smooth="yes"/>
      <point x="889" y="665"/>
      <point x="610" y="731"/>
      <point x="523" y="402" type="curve" smooth="yes"/>
      <point x="448" y="118" type="line" smooth="yes"/>
      <point x="372" y="-174"/>
      <point x="593" y="-187"/>
    </contour>
    <contour>
      <point x="110" y="-104" type="curve" smooth="yes"/>
      <point x="151" y="-111"/>
      <point x="163" y="-83"/>
      <point x="176" y="-42" type="curve" smooth="yes"/>
      <point x="308" y="368" type="line" smooth="yes"/>
      <point x="354" y="512"/>
      <point x="338" y="604"/>
      <point x="233" y="646" type="curve" smooth="yes"/>
      <point x="104" y="699"/>
      <point x="-74" y="633"/>
      <point x="-103" y="438" type="curve" smooth="yes"/>
      <point x="-110" y="385"/>
      <point x="-43" y="369"/>
      <point x="-30" y="437" type="curve" smooth="yes"/>
      <point x="-2" y="587"/>
      <point x="133" y="622"/>
      <point x="208" y="581" type="curve" smooth="yes"/>
      <point x="251" y="556"/>
      <point x="274" y="507"/>
      <point x="215" y="347" type="curve"/>
      <point x="84" y="-16" type="line" smooth="yes"/>
      <point x="58" y="-88"/>
      <point x="87" y="-101"/>
    </contour>
    <contour>
      <point x="522" y="671" type="move" name="top"/>
    </contour>
  </outline>
</glyph>
<glyph name="J" format="1">
  <advance width="507"/>
  <unicode hex="004A"/>
  <outline>
    <contour>
      <point x="208" y="-194" type="curve" smooth="yes"/>
      <point x="369" y="-195"/>
      <point x="500" y="320"/>
      <point x="581" y="641" type="curve" smooth="yes"/>
      <point x="585" y="658"/>
      <point x="577" y="679"/>
      <point x="544" y="679" type="curve" smooth="yes"/>
      <point x="519" y="679"/>
      <point x="507" y="672"/>
      <point x="500" y="633" type="curve" smooth="yes"/>
      <point x="476" y="500"/>
      <point x="315" y="-109"/>
      <point x="195" y="-109" type="curve" smooth="yes"/>
      <point x="141" y="-109"/>
      <point x="131" y="-61"/>
      <point x="125" y="21" type="curve" smooth="yes"/>
      <point x="121" y="68"/>
      <point x="62" y="72"/>
      <point x="63" y="12" type="curve" smooth="yes"/>
      <point x="68" y="-119"/>
      <point x="103" y="-195"/>
    </contour>
    <contour>
      <point x="685" y="586" type="curve" smooth="yes"/>
      <point x="714" y="591"/>
      <point x="727" y="604"/>
      <point x="726" y="626" type="curve" smooth="yes"/>
      <point x="726" y="645"/>
      <point x="716" y="661"/>
      <point x="684" y="661" type="curve" smooth="yes"/>
      <point x="554" y="661"/>
      <point x="430" y="675"/>
      <point x="322" y="678" type="curve" smooth="yes"/>
      <point x="141" y="684"/>
      <point x="1" y="654"/>
      <point x="-40" y="478" type="curve" smooth="yes"/>
      <point x="-50" y="433"/>
      <point x="2" y="430"/>
      <point x="14" y="457" type="curve" smooth="yes"/>
      <point x="56" y="557"/>
      <point x="101" y="597"/>
      <point x="354" y="584" type="curve" smooth="yes"/>
      <point x="485" y="578"/>
      <point x="621" y="574"/>
    </contour>
    <contour>
      <point x="532" y="671" type="move" name="top"/>
    </contour>
  </outline>
</glyph>
<glyph name="K" format="1">
  <advance width="646"/>
  <unicode hex="004B"/>
  <outline>
    <contour>
      <point x="610" y="-146" type="curve" smooth="yes"/>
      <point x="625" y="-146"/>
      <point x="733" y="-138"/>
      <point x="733" y="-102" type="curve" smooth="yes"/>
      <point x="733" y="-76"/>
      <point x="726" y="-66"/>
      <point x="713" y="-64" type="curve" smooth="yes"/>
      <point x="693" y="-61"/>
      <point x="663" y="-75"/>
      <point x="628" y="-75" type="curve" smooth="yes"/>
      <point x="517" y="-75"/>
      <point x="461" y="36"/>
      <point x="387" y="294" type="curve"/>
      <point x="569" y="385"/>
      <point x="714" y="545"/>
      <point x="742" y="605" type="curve" smooth="yes"/>
      <point x="755" y="636"/>
      <point x="761" y="672"/>
      <point x="724" y="672" type="curve" smooth="yes"/>
      <point x="698" y="672"/>
      <point x="683" y="644"/>
      <point x="658" y="610" type="curve" smooth="yes"/>
      <point x="604" y="537"/>
      <point x="478" y="417"/>
      <point x="320" y="332" type="curve"/>
      <point x="326" y="395"/>
      <point x="342" y="573"/>
      <point x="342" y="649" type="curve" smooth="yes"/>
      <point x="342" y="673"/>
      <point x="323" y="685"/>
      <point x="299" y="682" type="curve" smooth="yes"/>
      <point x="18" y="644"/>
      <point x="-58" y="492"/>
      <point x="-37" y="348" type="curve" smooth="yes"/>
      <point x="-33" y="320"/>
      <point x="-12" y="301"/>
      <point x="9" y="305" type="curve" smooth="yes"/>
      <point x="39" y="311"/>
      <point x="50" y="321"/>
      <point x="48" y="340" type="curve" smooth="yes"/>
      <point x="34" y="450"/>
      <point x="51" y="570"/>
      <point x="255" y="612" type="curve"/>
      <point x="255" y="177"/>
      <point x="174" y="-48"/>
      <point x="23" y="-48" type="curve" smooth="yes"/>
      <point x="4" y="-48"/>
      <point x="-11" y="-39"/>
      <point x="-27" y="-39" type="curve" smooth="yes"/>
      <point x="-48" y="-39"/>
      <point x="-70" y="-72"/>
      <point x="-70" y="-93" type="curve" smooth="yes"/>
      <point x="-70" y="-123"/>
      <point x="4" y="-127"/>
      <point x="36" y="-127" type="curve" smooth="yes"/>
      <point x="187" y="-127"/>
      <point x="265" y="18"/>
      <point x="314" y="294" type="curve"/>
      <point x="374" y="6"/>
      <point x="458" y="-146"/>
    </contour>
    <contour>
      <point x="300" y="-138" type="move" name="bot"/>
    </contour>
    <contour>
      <point x="512" y="671" type="move" name="top"/>
    </contour>
  </outline>
</glyph>
<glyph name="P" format="1">
  <advance width="583"/>
  <unicode hex="0050"/>
  <outline>
    <contour>
      <point x="239" y="-53" type="curve" smooth="yes"/>
      <point x="171" y="-53"/>
      <point x="160" y="102"/>
      <point x="160" y="211" type="curve" smooth="yes"/>
      <point x="160" y="387"/>
      <point x="222" y="622"/>
      <point x="400" y="632" type="curve" smooth="yes"/>
      <point x="537" y="640"/>
      <point x="617" y="587"/>
      <point x="617" y="491" type="curve" smooth="yes"/>
      <point x="617" y="400"/>
      <point x="533" y="333"/>
      <point x="403" y="320" type="curve"/>
      <point x="402" y="371"/>
      <point x="447" y="440"/>
      <point x="460" y="490" type="curve"/>
      <point x="459" y="504"/>
      <point x="440" y="511"/>
      <point x="421" y="511" type="curve" smooth="yes"/>
      <point x="355" y="511"/>
      <point x="353" y="418"/>
      <point x="326" y="323" type="curve"/>
      <point x="306" y="324"/>
      <point x="264" y="354"/>
      <point x="241" y="354" type="curve" smooth="yes"/>
      <point x="232" y="354"/>
      <point x="232" y="343"/>
      <point x="232" y="327" type="curve" smooth="yes"/>
      <point x="232" y="281"/>
      <point x="276" y="273"/>
      <point x="317" y="256" type="curve"/>
      <point x="295" y="87"/>
      <point x="303" y="-53"/>
    </contour>
    <contour>
      <point x="227" y="-125" type="curve" smooth="yes"/>
      <point x="332" y="-125"/>
      <point x="363" y="-28"/>
      <point x="377" y="98" type="curve" smooth="yes"/>
      <point x="388" y="188"/>
      <point x="392" y="259"/>
      <point x="401" y="261" type="curve" smooth="yes"/>
      <point x="589" y="282"/>
      <point x="703" y="374"/>
      <point x="703" y="499" type="curve" smooth="yes"/>
      <point x="703" y="624"/>
      <point x="590" y="720"/>
      <point x="403" y="713" type="curve" smooth="yes"/>
      <point x="188" y="705"/>
      <point x="77" y="476"/>
      <point x="77" y="211" type="curve" smooth="yes"/>
      <point x="77" y="31"/>
      <point x="118" y="-125"/>
    </contour>
    <contour>
      <point x="442" y="671" type="move" name="top"/>
    </contour>
  </outline>
</glyph>
<glyph name="X" format="1">
  <advance width="597"/>
  <unicode hex="0058"/>
  <outline>
    <contour>
      <point x="-21" y="-96" type="curve" smooth="yes"/>
      <point x="51" y="-96"/>
      <point x="104" y="-82"/>
      <point x="218" y="59" type="curve" smooth="yes"/>
      <point x="342" y="211"/>
      <point x="487" y="400"/>
      <point x="601" y="516" type="curve" smooth="yes"/>
      <point x="679" y="595"/>
      <point x="595" y="634"/>
      <point x="556" y="585" type="curve"/>
      <point x="445" y="430"/>
      <point x="294" y="244"/>
      <point x="188" y="116" type="curve" smooth="yes"/>
      <point x="108" y="21"/>
      <point x="53" y="-7"/>
      <point x="-29" y="-7" type="curve" smooth="yes"/>
      <point x="-71" y="-7"/>
      <point x="-74" y="-96"/>
    </contour>
    <contour>
      <point x="4" y="427" type="curve" smooth="yes"/>
      <point x="130" y="543"/>
      <point x="146" y="517"/>
      <point x="173" y="452" type="curve" smooth="yes"/>
      <point x="358" y="6" type="line" smooth="yes"/>
      <point x="411" y="-119"/>
      <point x="479" y="-114"/>
      <point x="566" y="-28" type="curve" smooth="yes"/>
      <point x="676" y="79" type="line" smooth="yes"/>
      <point x="694" y="97"/>
      <point x="654" y="128"/>
      <point x="645" y="119" type="curve" smooth="yes"/>
      <point x="535" y="16" type="line" smooth="yes"/>
      <point x="484" y="-32"/>
      <point x="460" y="6"/>
      <point x="438" y="62" type="curve" smooth="yes"/>
      <point x="276" y="489" type="line" smooth="yes"/>
      <point x="234" y="598"/>
      <point x="122" y="626"/>
      <point x="-29" y="471" type="curve" smooth="yes"/>
      <point x="-55" y="444"/>
      <point x="-15" y="409"/>
    </contour>
  </outline>
</glyph>
<glyph name="e" format="1">
  <advance width="288"/>
  <unicode hex="0065"/>
  <outline>
    <contour>
      <point x="158" y="-6" type="curve" smooth="yes"/>
      <point x="243" y="-8"/>
      <point x="323" y="45"/>
      <point x="354" y="88" type="curve" smooth="yes"/>
      <point x="377" y="118"/>
      <point x="340" y="143"/>
      <point x="325" y="128" type="curve" smooth="yes"/>
      <point x="245" y="51"/>
      <point x="125" y="34"/>
      <point x="102" y="103" type="curve"/>
      <point x="220" y="128"/>
      <point x="283" y="169"/>
      <point x="283" y="245" type="curve" smooth="yes"/>
      <point x="283" y="298"/>
      <point x="241" y="330"/>
      <point x="188" y="330" type="curve" smooth="yes"/>
      <point x="92" y="330"/>
      <point x="22" y="222"/>
      <point x="22" y="129" type="curve" smooth="yes"/>
      <point x="22" y="36"/>
      <point x="89" y="-4"/>
    </contour>
    <contour>
      <point x="97" y="147" type="curve"/>
      <point x="97" y="204"/>
      <point x="144" y="265"/>
      <point x="193" y="265" type="curve" smooth="yes"/>
      <point x="209" y="265"/>
      <point x="224" y="257"/>
      <point x="222" y="233" type="curve" smooth="yes"/>
      <point x="218" y="195"/>
      <point x="138" y="161"/>
    </contour>
    <contour>
      <point x="184" y="0" type="move" name="ogonek"/>
    </contour>
    <contour>
      <point x="216" y="339" type="move" name="top"/>
    </contour>
  </outline>
</glyph>
<glyph name="k" format="1">
  <advance width="432"/>
  <unicode hex="006B"/>
  <outline>
    <contour>
      <point x="324" y="-7" type="curve" smooth="yes"/>
      <point x="390" y="-7"/>
      <point x="467" y="53"/>
      <point x="497" y="100" type="curve" smooth="yes"/>
      <point x="514" y="125"/>
      <point x="481" y="170"/>
      <point x="462" y="143" type="curve" smooth="yes"/>
      <point x="429" y="97"/>
      <point x="380" y="59"/>
      <point x="347" y="54" type="curve" smooth="yes"/>
      <point x="316" y="50"/>
      <point x="303" y="57"/>
      <point x="306" y="77" type="curve" smooth="yes"/>
      <point x="317" y="142"/>
      <point x="430" y="158"/>
      <point x="437" y="247" type="curve" smooth="yes"/>
      <point x="441" y="292"/>
      <point x="417" y="321"/>
      <point x="372" y="322" type="curve" smooth="yes"/>
      <point x="288" y="323"/>
      <point x="207" y="242"/>
      <point x="114" y="77" type="curve"/>
      <point x="114" y="94"/>
      <point x="124" y="178"/>
      <point x="129" y="207" type="curve"/>
      <point x="171" y="243"/>
      <point x="372" y="449"/>
      <point x="372" y="580" type="curve" smooth="yes"/>
      <point x="372" y="623"/>
      <point x="348" y="656"/>
      <point x="302" y="656" type="curve" smooth="yes"/>
      <point x="102" y="656"/>
      <point x="46" y="229"/>
      <point x="46" y="79" type="curve" smooth="yes"/>
      <point x="46" y="46"/>
      <point x="53" y="-4"/>
      <point x="83" y="-4" type="curve" smooth="yes"/>
      <point x="170" y="-4"/>
      <point x="243" y="236"/>
      <point x="342" y="236" type="curve" smooth="yes"/>
      <point x="354" y="236"/>
      <point x="354" y="226"/>
      <point x="354" y="220" type="curve" smooth="yes"/>
      <point x="350" y="182"/>
      <point x="231" y="145"/>
      <point x="240" y="63" type="curve" smooth="yes"/>
      <point x="246" y="8"/>
      <point x="295" y="-7"/>
    </contour>
    <contour>
      <point x="142" y="296" type="curve"/>
      <point x="158" y="398"/>
      <point x="219" y="574"/>
      <point x="278" y="574" type="curve" smooth="yes"/>
      <point x="291" y="574"/>
      <point x="296" y="568"/>
      <point x="296" y="554" type="curve" smooth="yes"/>
      <point x="296" y="473"/>
      <point x="211" y="376"/>
    </contour>
    <contour>
      <point x="181" y="0" type="move" name="bot"/>
    </contour>
  </outline>
</glyph>
<glyph name="p" format="1">
  <advance width="348"/>
  <unicode hex="0070"/>
  <outline>
    <contour>
      <point x="296" y="126" type="curve" smooth="yes"/>
      <point x="351" y="130"/>
      <point x="447" y="192"/>
      <point x="482" y="235" type="curve"/>
      <point x="489" y="240"/>
      <point x="492" y="248"/>
      <point x="493" y="255" type="curve" smooth="yes"/>
      <point x="494" y="270"/>
      <point x="486" y="285"/>
      <point x="474" y="285" type="curve" smooth="yes"/>
      <point x="471" y="285"/>
      <point x="468" y="284"/>
      <point x="464" y="282" type="curve"/>
      <point x="428" y="248"/>
      <point x="359" y="193"/>
      <point x="320" y="193" type="curve" smooth="yes"/>
      <point x="317" y="193"/>
      <point x="292" y="237"/>
      <point x="267" y="237" type="curve" smooth="yes"/>
      <point x="262" y="237"/>
      <point x="257" y="235"/>
      <point x="253" y="229" type="curve"/>
      <point x="229" y="209"/>
      <point x="224" y="198"/>
      <point x="223" y="181" type="curve" smooth="yes"/>
      <point x="220" y="143"/>
      <point x="248" y="124"/>
    </contour>
    <contour>
      <point x="-5" y="-240" type="curve" smooth="yes"/>
      <point x="15" y="-240"/>
      <point x="47" y="-221"/>
      <point x="52" y="-205" type="curve"/>
      <point x="62" y="-176"/>
      <point x="90" y="-8"/>
      <point x="98" y="21" type="curve"/>
      <point x="116" y="4"/>
      <point x="136" y="-5"/>
      <point x="157" y="-5" type="curve" smooth="yes"/>
      <point x="257" y="-5"/>
      <point x="327" y="113"/>
      <point x="333" y="210" type="curve" smooth="yes"/>
      <point x="338" y="275"/>
      <point x="311" y="330"/>
      <point x="242" y="330" type="curve" smooth="yes"/>
      <point x="102" y="330"/>
      <point x="68" y="194"/>
      <point x="36" y="87" type="curve" smooth="yes"/>
      <point x="29" y="66"/>
      <point x="-15" y="-149"/>
      <point x="-19" y="-197" type="curve" smooth="yes"/>
      <point x="-21" y="-220"/>
      <point x="-18" y="-240"/>
    </contour>
    <contour>
      <point x="160" y="62" type="curve" smooth="yes"/>
      <point x="144" y="62"/>
      <point x="127" y="68"/>
      <point x="110" y="82" type="curve"/>
      <point x="125" y="132"/>
      <point x="142" y="265"/>
      <point x="222" y="265" type="curve" smooth="yes"/>
      <point x="250" y="265"/>
      <point x="266" y="227"/>
      <point x="263" y="191" type="curve" smooth="yes"/>
      <point x="258" y="131"/>
      <point x="214" y="62"/>
    </contour>
    <contour>
      <point x="236" y="339" type="move" name="top"/>
    </contour>
  </outline>
</glyph>
<glyph name="r" format="1">
  <advance width="317.999"/>
  <unicode hex="0072"/>
  <outline>
    <contour>
      <point x="75" y="0" type="curve" smooth="yes"/>
      <point x="102" y="0"/>
      <point x="110" y="10"/>
      <point x="118" y="26" type="curve"/>
      <point x="172" y="174"/>
      <point x="228" y="255"/>
      <point x="226" y="251" type="curve" smooth="yes"/>
      <point x="196" y="182"/>
      <point x="202" y="121"/>
      <point x="293" y="129" type="curve" smooth="yes"/>
      <point x="331" y="133"/>
      <point x="371" y="160"/>
      <point x="395" y="182" type="curve" smooth="yes"/>
      <point x="409" y="196"/>
      <point x="382" y="232"/>
      <point x="366" y="224" type="curve" smooth="yes"/>
      <point x="297" y="183"/>
      <point x="264" y="187"/>
      <point x="277" y="224" type="curve" smooth="yes"/>
      <point x="301" y="292"/>
      <point x="308" y="329"/>
      <point x="251" y="329" type="curve" smooth="yes"/>
      <point x="206" y="329"/>
      <point x="124" y="191"/>
      <point x="103" y="126" type="curve"/>
      <point x="113" y="179"/>
      <point x="133" y="261"/>
      <point x="141" y="294" type="curve" smooth="yes"/>
      <point x="146" y="312"/>
      <point x="133" y="330"/>
      <point x="113" y="330" type="curve" smooth="yes"/>
      <point x="89" y="330"/>
      <point x="76" y="317"/>
      <point x="65" y="285" type="curve" smooth="yes"/>
      <point x="47" y="225"/>
      <point x="34" y="143"/>
      <point x="34" y="74" type="curve" smooth="yes"/>
      <point x="33" y="37"/>
      <point x="38" y="0"/>
    </contour>
    <contour>
      <point x="216" y="339" type="move" name="top"/>
    </contour>
  </outline>
</glyph>
<glyph name="u" format="1">
  <advance width="347"/>
  <unicode hex="0075"/>
  <outline>
    <contour>
      <point x="96" y="-4" type="curve" smooth="yes"/>
      <point x="164" y="-11"/>
      <point x="208" y="53"/>
      <point x="220" y="86" type="curve"/>
      <point x="217" y="55" type="line"/>
      <point x="218" y="14"/>
      <point x="237" y="-5"/>
      <point x="280" y="-4" type="curve" smooth="yes"/>
      <point x="328" y="-2"/>
      <point x="413" y="52"/>
      <point x="437" y="97" type="curve"/>
      <point x="439" y="111"/>
      <point x="417" y="131"/>
      <point x="400" y="131" type="curve" smooth="yes"/>
      <point x="393" y="131"/>
      <point x="392" y="128"/>
      <point x="383" y="121" type="curve" smooth="yes"/>
      <point x="373" y="110"/>
      <point x="330" y="65"/>
      <point x="300" y="63" type="curve" smooth="yes"/>
      <point x="291" y="63"/>
      <point x="284" y="70"/>
      <point x="287" y="98" type="curve" smooth="yes"/>
      <point x="296" y="182"/>
      <point x="323" y="270"/>
      <point x="332" y="297" type="curve" smooth="yes"/>
      <point x="336" y="313"/>
      <point x="317" y="330"/>
      <point x="299" y="330" type="curve" smooth="yes"/>
      <point x="276" y="330"/>
      <point x="265" y="326"/>
      <point x="251" y="279" type="curve" smooth="yes"/>
      <point x="224" y="179" type="line" smooth="yes"/>
      <point x="199" y="92"/>
      <point x="146" y="53"/>
      <point x="113" y="63" type="curve" smooth="yes"/>
      <point x="98" y="67"/>
      <point x="88" y="87"/>
      <point x="90" y="117" type="curve" smooth="yes"/>
      <point x="96" y="203"/>
      <point x="140" y="287"/>
      <point x="142" y="304" type="curve" smooth="yes"/>
      <point x="143" y="319"/>
      <point x="128" y="330"/>
      <point x="108" y="330" type="curve" smooth="yes"/>
      <point x="92" y="330"/>
      <point x="81" y="326"/>
      <point x="73" y="313" type="curve" smooth="yes"/>
      <point x="62" y="295"/>
      <point x="28" y="216"/>
      <point x="19" y="123" type="curve" smooth="yes"/>
      <point x="12" y="59"/>
      <point x="32" y="2"/>
    </contour>
    <contour>
      <point x="280" y="0" type="move" name="ogonek"/>
    </contour>
    <contour>
      <point x="216" y="339" type="move" name="top"/>
    </contour>
  </outline>
</glyph>
<glyph name="cent" format="1">
  <advance width="306"/>
  <unicode hex="00A2"/>
  <outline>
    <contour>
      <point x="160" y="-68" type="curve" smooth="yes"/>
      <point x="175" y="-68"/>
      <point x="185" y="-60"/>
      <point x="188" y="-44" type="curve"/>
      <point x="194" y="2" type="line"/>
      <point x="233" y="11"/>
      <point x="266" y="34"/>
      <point x="292" y="55" type="curve" smooth="yes"/>
      <point x="298" y="60"/>
      <point x="302" y="65"/>
      <point x="302" y="75" type="curve" smooth="yes"/>
      <point x="302" y="92"/>
      <point x="287" y="119"/>
      <point x="269" y="105" type="curve" smooth="yes"/>
      <point x="251" y="93"/>
      <point x="224" y="76"/>
      <point x="200" y="69" type="curve"/>
      <point x="206" y="134"/>
      <point x="209" y="200"/>
      <point x="213" y="262" type="curve"/>
      <point x="252" y="253"/>
      <point x="221" y="186"/>
      <point x="264" y="186" type="curve" smooth="yes"/>
      <point x="292" y="186"/>
      <point x="303" y="221"/>
      <point x="303" y="249" type="curve" smooth="yes"/>
      <point x="303" y="296"/>
      <point x="261" y="320"/>
      <point x="218" y="326" type="curve"/>
      <point x="219" y="335"/>
      <point x="221" y="351"/>
      <point x="221" y="361" type="curve" smooth="yes"/>
      <point x="221" y="371"/>
      <point x="216" y="388"/>
      <point x="207" y="388" type="curve" smooth="yes"/>
      <point x="187" y="388"/>
      <point x="177" y="368"/>
      <point x="176" y="350" type="curve" smooth="yes"/>
      <point x="174" y="327" type="line"/>
      <point x="87" y="317"/>
      <point x="22" y="238"/>
      <point x="22" y="141" type="curve" smooth="yes"/>
      <point x="22" y="61"/>
      <point x="67" y="1"/>
      <point x="146" y="0" type="curve"/>
      <point x="146" y="-15"/>
      <point x="144" y="-32"/>
      <point x="144" y="-45" type="curve" smooth="yes"/>
      <point x="145" y="-58"/>
      <point x="148" y="-68"/>
    </contour>
    <contour>
      <point x="152" y="66" type="curve"/>
      <point x="121" y="73"/>
      <point x="109" y="104"/>
      <point x="109" y="142" type="curve" smooth="yes"/>
      <point x="109" y="195"/>
      <point x="128" y="240"/>
      <point x="168" y="256" type="curve"/>
      <point x="163" y="194"/>
      <point x="157" y="128"/>
    </contour>
  </outline>
</glyph>
<glyph name="dieresis" format="1">
  <advance width="350"/>
  <unicode hex="00A8"/>
  <outline>
    <contour>
      <point x="45" y="428" type="curve" smooth="yes"/>
      <point x="67" y="428"/>
      <point x="98" y="444"/>
      <point x="97" y="481" type="curve" smooth="yes"/>
      <point x="96" y="506"/>
      <point x="86" y="523"/>
      <point x="48" y="523" type="curve" smooth="yes"/>
      <point x="27" y="523"/>
      <point x="-3" y="507"/>
      <point x="-2" y="470" type="curve" smooth="yes"/>
      <point x="-1" y="444"/>
      <point x="9" y="428"/>
    </contour>
    <contour>
      <point x="244" y="428" type="curve" smooth="yes"/>
      <point x="266" y="429"/>
      <point x="296" y="446"/>
      <point x="291" y="483" type="curve" smooth="yes"/>
      <point x="288" y="508"/>
      <point x="276" y="524"/>
      <point x="239" y="523" type="curve" smooth="yes"/>
      <point x="218" y="522"/>
      <point x="189" y="505"/>
      <point x="194" y="468" type="curve" smooth="yes"/>
      <point x="197" y="442"/>
      <point x="208" y="427"/>
    </contour>
    <contour>
      <point x="126" y="339" type="move" name="_top"/>
    </contour>
  </outline>
</glyph>
<glyph name="macron" format="1">
  <advance width="205"/>
  <unicode hex="00AF"/>
  <outline>
    <contour>
      <point x="-33" y="410" type="curve" smooth="yes"/>
      <point x="12" y="420"/>
      <point x="43" y="431"/>
      <point x="174" y="422" type="curve" smooth="yes"/>
      <point x="197" y="421"/>
      <point x="205" y="427"/>
      <point x="208" y="441" type="curve" smooth="yes"/>
      <point x="212" y="462"/>
      <point x="198" y="470"/>
      <point x="182" y="474" type="curve"/>
      <point x="68" y="490"/>
      <point x="6" y="489"/>
      <point x="-27" y="479" type="curve" smooth="yes"/>
      <point x="-61" y="469"/>
      <point x="-66" y="452"/>
      <point x="-65" y="437" type="curve" smooth="yes"/>
      <point x="-65" y="420"/>
      <point x="-52" y="405"/>
    </contour>
    <contour>
      <point x="64" y="458" type="move" name="_mid"/>
    </contour>
    <contour>
      <point x="76" y="339" type="move" name="_top"/>
    </contour>
  </outline>
</glyph>
<glyph name="degree" format="1">
  <advance width="251"/>
  <unicode hex="00B0"/>
  <outline>
    <contour>
      <point x="111" y="411" type="curve" smooth="yes"/>
      <point x="87" y="411"/>
      <point x="73" y="427"/>
      <point x="73" y="450" type="curve" smooth="yes"/>
      <point x="73" y="486"/>
      <point x="104" y="509"/>
      <point x="141" y="509" type="curve" smooth="yes"/>
      <point x="162" y="509"/>
      <point x="174" y="495"/>
      <point x="174" y="475" type="curve" smooth="yes"/>
      <point x="174" y="439"/>
      <point x="147" y="411"/>
    </contour>
    <contour>
      <point x="111" y="360" type="curve" smooth="yes"/>
      <point x="180" y="360"/>
      <point x="229" y="409"/>
      <point x="229" y="479" type="curve" smooth="yes"/>
      <point x="229" y="527"/>
      <point x="197" y="558"/>
      <point x="150" y="558" type="curve" smooth="yes"/>
      <point x="85" y="558"/>
      <point x="22" y="517"/>
      <point x="22" y="450" type="curve" smooth="yes"/>
      <point x="22" y="395"/>
      <point x="58" y="360"/>
    </contour>
  </outline>
</glyph>
<glyph name="AE" format="1">
  <advance width="1237"/>
  <unicode hex="00C6"/>
  <outline>
    <contour>
      <point x="1050" y="147"/>
      <point x="1031" y="146"/>
      <point x="1024" y="134" type="curve" smooth="yes"/>
      <point x="974" y="48"/>
      <point x="881" y="6"/>
      <point x="797" y="8" type="curve" smooth="yes"/>
      <point x="681" y="10"/>
      <point x="580" y="96"/>
      <point x="629" y="265" type="curve"/>
      <point x="631" y="265"/>
      <point x="722" y="265"/>
      <point x="724" y="265" type="curve" smooth="yes"/>
      <point x="749" y="267"/>
      <point x="759" y="288"/>
      <point x="760" y="309" type="curve" smooth="yes"/>
      <point x="761" y="329"/>
      <point x="753" y="348"/>
      <point x="740" y="349" type="curve" smooth="yes"/>
      <point x="739" y="349"/>
      <point x="647" y="351"/>
      <point x="645" y="351" type="curve"/>
      <point x="653" y="384"/>
      <point x="667" y="430"/>
      <point x="685" y="512" type="curve" smooth="yes"/>
      <point x="705" y="603"/>
      <point x="753" y="639"/>
      <point x="846" y="639" type="curve" smooth="yes"/>
      <point x="895" y="639"/>
      <point x="951" y="625"/>
      <point x="983" y="596" type="curve"/>
      <point x="936" y="577"/>
      <point x="929" y="539"/>
      <point x="941" y="507" type="curve"/>
      <point x="949" y="489"/>
      <point x="972" y="478"/>
      <point x="989" y="478" type="curve"/>
      <point x="1010" y="477"/>
      <point x="1061" y="482"/>
      <point x="1061" y="560" type="curve" smooth="yes"/>
      <point x="1061" y="655"/>
      <point x="956" y="704"/>
      <point x="850" y="704" type="curve" smooth="yes"/>
      <point x="790" y="704"/>
      <point x="727" y="690"/>
      <point x="675" y="662" type="curve"/>
      <point x="628" y="685"/>
      <point x="578" y="696"/>
      <point x="527" y="697" type="curve" smooth="yes"/>
      <point x="302" y="701"/>
      <point x="59" y="505"/>
      <point x="59" y="197" type="curve" smooth="yes"/>
      <point x="58" y="30"/>
      <point x="138" y="-60"/>
      <point x="288" y="-60" type="curve" smooth="yes"/>
      <point x="375" y="-60"/>
      <point x="504" y="-13"/>
      <point x="550" y="99" type="curve"/>
      <point x="563" y="-22"/>
      <point x="673" y="-78"/>
      <point x="791" y="-77" type="curve" smooth="yes"/>
      <point x="909" y="-77"/>
      <point x="1036" y="-22"/>
      <point x="1082" y="79" type="curve"/>
      <point x="1089" y="87"/>
      <point x="1092" y="96"/>
      <point x="1092" y="105" type="curve" smooth="yes"/>
      <point x="1092" y="126"/>
      <point x="1078" y="147"/>
      <point x="1059" y="147" type="curve" smooth="yes"/>
    </contour>
    <contour>
      <point x="204" y="17"/>
      <point x="151" y="82"/>
      <point x="156" y="198" type="curve" smooth="yes"/>
      <point x="170" y="552"/>
      <point x="454" y="674"/>
      <point x="617" y="597" type="curve"/>
      <point x="573" y="489"/>
      <point x="543" y="205"/>
      <point x="476" y="109" type="curve" smooth="yes"/>
      <point x="435" y="50"/>
      <point x="370" y="17"/>
      <point x="300" y="17" type="curve" smooth="yes"/>
    </contour>
    <contour>
      <point x="541" y="-46" type="move" name="ogonek"/>
    </contour>
    <contour>
      <point x="950" y="-87" type="move" name="bot"/>
    </contour>
    <contour>
      <point x="785" y="671" type="move" name="top"/>
    </contour>
  </outline>
</glyph>
<glyph name="Lslash" format="1">
  <advance width="622"/>
  <unicode hex="0141"/>
  <outline>
    <contour>
      <point x="558" y="230" type="line" smooth="yes"/>
      <point x="568" y="235"/>
      <point x="574" y="244"/>
      <point x="574" y="252" type="curve" smooth="yes"/>
      <point x="574" y="265"/>
      <point x="562" y="278"/>
      <point x="547" y="278" type="curve" smooth="yes"/>
      <point x="544" y="278"/>
      <point x="541" y="277"/>
      <point x="537" y="275" type="curve" smooth="yes"/>
      <point x="327" y="178" type="line" smooth="yes"/>
      <point x="313" y="171"/>
      <point x="306" y="161"/>
      <point x="306" y="151" type="curve" smooth="yes"/>
      <point x="306" y="139"/>
      <point x="316" y="128"/>
      <point x="330" y="128" type="curve" smooth="yes"/>
      <point x="333" y="128"/>
      <point x="338" y="128"/>
      <point x="342" y="130" type="curve" smooth="yes"/>
    </contour>
    <component base="L"/>
  </outline>
</glyph>
<glyph name="uni01C7" format="1">
  <advance width="1129"/>
  <unicode hex="01C7"/>
  <outline>
    <contour>
      <point x="1348" y="645"/>
      <point x="1338" y="661"/>
      <point x="1306" y="661" type="curve" smooth="yes"/>
      <point x="1270" y="661"/>
      <point x="1235" y="662"/>
      <point x="1200" y="664" type="curve"/>
      <point x="1195" y="672"/>
      <point x="1184" y="679"/>
      <point x="1166" y="679" type="curve" smooth="yes"/>
      <point x="1152" y="679"/>
      <point x="1142" y="677"/>
      <point x="1134" y="667" type="curve"/>
      <point x="1067" y="671"/>
      <point x="1003" y="676"/>
      <point x="944" y="678" type="curve" smooth="yes"/>
      <point x="853" y="681"/>
      <point x="815" y="677"/>
      <point x="795" y="650" type="curve"/>
      <point x="756" y="692"/>
      <point x="691" y="717"/>
      <point x="608" y="705" type="curve" smooth="yes"/>
      <point x="501" y="689"/>
      <point x="398" y="618"/>
      <point x="396" y="421" type="curve"/>
      <point x="362" y="426"/>
      <point x="325" y="433"/>
      <point x="285" y="442" type="curve" smooth="yes"/>
      <point x="246" y="452"/>
      <point x="227" y="388"/>
      <point x="262" y="380" type="curve" smooth="yes"/>
      <point x="310" y="369"/>
      <point x="355" y="361"/>
      <point x="396" y="356" type="curve"/>
      <point x="396" y="244"/>
      <point x="393" y="130"/>
      <point x="353" y="53" type="curve"/>
      <point x="300" y="86"/>
      <point x="240" y="118"/>
      <point x="165" y="118" type="curve" smooth="yes"/>
      <point x="14" y="118"/>
      <point x="13" y="-104"/>
      <point x="189" y="-104" type="curve" smooth="yes"/>
      <point x="267" y="-104"/>
      <point x="326" y="-80"/>
      <point x="371" y="-39" type="curve"/>
      <point x="475" y="-102"/>
      <point x="574" y="-152"/>
      <point x="671" y="20" type="curve" smooth="yes"/>
      <point x="691" y="56"/>
      <point x="653" y="78"/>
      <point x="627" y="48" type="curve" smooth="yes"/>
      <point x="548" y="-47"/>
      <point x="486" y="-27"/>
      <point x="415" y="15" type="curve"/>
      <point x="471" y="102"/>
      <point x="488" y="227"/>
      <point x="482" y="349" type="curve"/>
      <point x="763" y="340"/>
      <point x="859" y="475"/>
      <point x="832" y="583" type="curve"/>
      <point x="854" y="588"/>
      <point x="896" y="588"/>
      <point x="976" y="584" type="curve" smooth="yes"/>
      <point x="1021" y="582"/>
      <point x="1067" y="580"/>
      <point x="1111" y="579" type="curve"/>
      <point x="1066" y="378"/>
      <point x="925" y="-144"/>
      <point x="817" y="-130" type="curve" smooth="yes"/>
      <point x="776" y="-125"/>
      <point x="773" y="-81"/>
      <point x="767" y="1" type="curve" smooth="yes"/>
      <point x="763" y="48"/>
      <point x="704" y="52"/>
      <point x="705" y="-8" type="curve" smooth="yes"/>
      <point x="710" y="-139"/>
      <point x="749" y="-203"/>
      <point x="830" y="-194" type="curve" smooth="yes"/>
      <point x="981" y="-177"/>
      <point x="1105" y="259"/>
      <point x="1187" y="578" type="curve"/>
      <point x="1237" y="579"/>
      <point x="1279" y="581"/>
      <point x="1307" y="586" type="curve" smooth="yes"/>
      <point x="1336" y="591"/>
      <point x="1349" y="604"/>
      <point x="1348" y="626" type="curve"/>
    </contour>
    <contour>
      <point x="490" y="549"/>
      <point x="523" y="603"/>
      <point x="597" y="625" type="curve" smooth="yes"/>
      <point x="802" y="686"/>
      <point x="850" y="403"/>
      <point x="483" y="414" type="curve"/>
    </contour>
    <contour>
      <point x="116" y="-41"/>
      <point x="114" y="46"/>
      <point x="167" y="46" type="curve" smooth="yes"/>
      <point x="216" y="47"/>
      <point x="263" y="25"/>
      <point x="310" y="-2" type="curve"/>
      <point x="281" y="-27"/>
      <point x="241" y="-41"/>
      <point x="189" y="-41" type="curve" smooth="yes"/>
    </contour>
  </outline>
</glyph>
<glyph name="dotlessj" format="1">
  <advance width="221"/>
  <unicode hex="0237"/>
  <outline>
    <contour>
      <point x="3" y="-88"/>
      <point x="-3" y="-208"/>
      <point x="80" y="-208" type="curve" smooth="yes"/>
      <point x="166" y="-208"/>
      <point x="200" y="-96"/>
      <point x="207" y="-11" type="curve" smooth="yes"/>
      <point x="212" y="44"/>
      <point x="201" y="91"/>
      <point x="189" y="131" type="curve"/>
      <point x="250" y="132"/>
      <point x="332" y="146"/>
      <point x="332" y="211" type="curve" smooth="yes"/>
      <point x="332" y="226"/>
      <point x="326" y="236"/>
      <point x="312" y="229" type="curve"/>
      <point x="250" y="203"/>
      <point x="211" y="198"/>
      <point x="135" y="186" type="curve"/>
      <point x="159" y="241" type="line" smooth="yes"/>
      <point x="167" y="258"/>
      <point x="179" y="284"/>
      <point x="181" y="306" type="curve" smooth="yes"/>
      <point x="182" y="318"/>
      <point x="175" y="328"/>
      <point x="161" y="328" type="curve" smooth="yes"/>
      <point x="115" y="328"/>
      <point x="102" y="315"/>
      <point x="87" y="280" type="curve" smooth="yes"/>
      <point x="54" y="202"/>
      <point x="20" y="95"/>
      <point x="11" y="0" type="curve" smooth="yes"/>
    </contour>
    <contour>
      <point x="137" y="-63"/>
      <point x="129" y="-131"/>
      <point x="98" y="-131" type="curve" smooth="yes"/>
      <point x="80" y="-131"/>
      <point x="80" y="-88"/>
      <point x="82" y="-65" type="curve" smooth="yes"/>
      <point x="89" y="14"/>
      <point x="105" y="84"/>
      <point x="123" y="153" type="curve"/>
      <point x="133" y="102"/>
      <point x="146" y="50"/>
      <point x="142" y="-11" type="curve" smooth="yes"/>
    </contour>
    <contour>
      <point x="158" y="339" type="move" name="top"/>
    </contour>
  </outline>
</glyph>
<glyph name="caron" format="1">
  <advance width="295"/>
  <unicode hex="02C7"/>
  <outline>
    <contour>
      <point x="86" y="427"/>
      <point x="96" y="414"/>
      <point x="120" y="411" type="curve" smooth="yes"/>
      <point x="165" y="405"/>
      <point x="169" y="422"/>
      <point x="202" y="484" type="curve" smooth="yes"/>
      <point x="259" y="590" type="line" smooth="yes"/>
      <point x="270" y="610"/>
      <point x="268" y="627"/>
      <point x="239" y="634" type="curve" smooth="yes"/>
      <point x="205" y="642"/>
      <point x="200" y="617"/>
      <point x="188" y="590" type="curve" smooth="yes"/>
      <point x="132" y="467" type="line"/>
      <point x="95" y="606" type="line" smooth="yes"/>
      <point x="89" y="629"/>
      <point x="80" y="639"/>
      <point x="62" y="637" type="curve" smooth="yes"/>
      <point x="34" y="634"/>
      <point x="20" y="621"/>
      <point x="30" y="592" type="curve" smooth="yes"/>
      <point x="70" y="474" type="line" smooth="yes"/>
    </contour>
    <contour>
      <point x="127" y="339" type="move" name="_top"/>
    </contour>
  </outline>
</glyph>
<glyph name="uni02C9" format="1">
  <advance width="205"/>
  <unicode hex="02C9"/>
  <outline>
    <contour>
      <point x="-3" y="474" type="curve" smooth="yes"/>
      <point x="42" y="484"/>
      <point x="73" y="495"/>
      <point x="204" y="486" type="curve" smooth="yes"/>
      <point x="227" y="485"/>
      <point x="235" y="491"/>
      <point x="238" y="505" type="curve" smooth="yes"/>
      <point x="242" y="526"/>
      <point x="228" y="534"/>
      <point x="212" y="538" type="curve"/>
      <point x="98" y="554"/>
      <point x="36" y="553"/>
      <point x="3" y="543" type="curve" smooth="yes"/>
      <point x="-31" y="533"/>
      <point x="-36" y="516"/>
      <point x="-35" y="501" type="curve" smooth="yes"/>
      <point x="-35" y="484"/>
      <point x="-22" y="469"/>
    </contour>
    <contour>
      <point x="86" y="339" type="move" name="_top"/>
    </contour>
  </outline>
</glyph>
<glyph name="uni0312" format="1">
  <advance width="205"/>
  <unicode hex="0312"/>
  <outline>
    <contour>
      <point x="110" y="453" type="curve" smooth="yes"/>
      <point x="132" y="453"/>
      <point x="150" y="468"/>
      <point x="153" y="496" type="curve" smooth="yes"/>
      <point x="171" y="650"/>
      <point x="171" y="652"/>
      <point x="171" y="653" type="curve" smooth="yes"/>
      <point x="171" y="670"/>
      <point x="162" y="682"/>
      <point x="151" y="682" type="curve" smooth="yes"/>
      <point x="133" y="682"/>
      <point x="120" y="666"/>
      <point x="115" y="650" type="curve"/>
      <point x="99" y="605"/>
      <point x="69" y="543"/>
      <point x="69" y="490" type="curve" smooth="yes"/>
      <point x="69" y="465"/>
      <point x="87" y="453"/>
    </contour>
    <contour>
      <point x="96" y="339" type="move" name="_top"/>
    </contour>
  </outline>
</glyph>
<glyph name="uni0326" format="1">
  <advance width="205"/>
  <unicode hex="0326"/>
  <outline>
    <component base="comma" xOffset="-45" yOffset="-168"/>
    <contour>
      <point x="116" y="0" type="move" name="_bot"/>
    </contour>
  </outline>
</glyph>
<glyph name="emptyset" format="1">
  <advance width="419"/>
  <unicode hex="2205"/>
  <outline>
    <contour>
      <point x="189" y="-102" type="curve" smooth="yes"/>
      <point x="242" y="51" type="line"/>
      <point x="424" y="51"/>
      <point x="486" y="376"/>
      <point x="363" y="427" type="curve"/>
      <point x="417" y="592" type="line" smooth="yes"/>
      <point x="429" y="625"/>
      <point x="391" y="640"/>
      <point x="378" y="601" type="curve" smooth="yes"/>
      <point x="322" y="433" type="line"/>
      <point x="220" y="428"/>
      <point x="132" y="301"/>
      <point x="132" y="184" type="curve" smooth="yes"/>
      <point x="132" y="125"/>
      <point x="155" y="78"/>
      <point x="199" y="60" type="curve"/>
      <point x="150" y="-91" type="line" smooth="yes"/>
      <point x="143" y="-115"/>
      <point x="181" y="-127"/>
    </contour>
    <contour>
      <point x="223" y="130" type="line"/>
      <point x="206" y="145"/>
      <point x="200" y="170"/>
      <point x="200" y="196" type="curve" smooth="yes"/>
      <point x="200" y="269"/>
      <point x="245" y="346"/>
      <point x="299" y="362" type="curve"/>
    </contour>
    <contour>
      <point x="263" y="120" type="curve"/>
      <point x="340" y="357" type="line"/>
      <point x="390" y="315"/>
      <point x="348" y="125"/>
    </contour>
  </outline>
</glyph>
<glyph name="product" format="1">
  <advance width="776"/>
  <unicode hex="220F"/>
  <outline>
    <contour>
      <point x="138" y="619" type="curve" smooth="yes"/>
      <point x="97" y="614"/>
      <point x="104" y="534"/>
      <point x="143" y="541" type="curve" smooth="yes"/>
      <point x="190" y="548"/>
      <point x="211" y="553"/>
      <point x="308" y="552" type="curve"/>
      <point x="162" y="205"/>
      <point x="150" y="-11"/>
      <point x="158" y="-41" type="curve" smooth="yes"/>
      <point x="174" y="-104"/>
      <point x="245" y="-104"/>
      <point x="256" y="-36" type="curve" smooth="yes"/>
      <point x="263" y="5"/>
      <point x="261" y="166"/>
      <point x="377" y="552" type="curve"/>
      <point x="409" y="551"/>
      <point x="445" y="551"/>
      <point x="488" y="550" type="curve" smooth="yes"/>
      <point x="557" y="548"/>
      <point x="611" y="547"/>
      <point x="654" y="546" type="curve"/>
      <point x="536" y="182"/>
      <point x="537" y="-11"/>
      <point x="544" y="-41" type="curve" smooth="yes"/>
      <point x="561" y="-104"/>
      <point x="631" y="-104"/>
      <point x="642" y="-36" type="curve" smooth="yes"/>
      <point x="649" y="5"/>
      <point x="614" y="164"/>
      <point x="724" y="544" type="curve"/>
      <point x="760" y="544"/>
      <point x="835" y="545"/>
      <point x="858" y="547" type="curve" smooth="yes"/>
      <point x="884" y="550"/>
      <point x="905" y="627"/>
      <point x="854" y="627" type="curve" smooth="yes"/>
      <point x="489" y="627"/>
      <point x="324" y="644"/>
    </contour>
  </outline>
</glyph>
<glyph name="minus" format="1">
  <advance width="416"/>
  <unicode hex="2212"/>
  <outline>
    <contour>
      <point x="107" y="197" type="curve" smooth="yes"/>
      <point x="313" y="197" type="line" smooth="yes"/>
      <point x="338" y="197"/>
      <point x="350" y="211"/>
      <point x="350" y="236" type="curve" smooth="yes"/>
      <point x="350" y="253"/>
      <point x="336" y="263"/>
      <point x="317" y="263" type="curve" smooth="yes"/>
      <point x="113" y="263" type="line" smooth="yes"/>
      <point x="89" y="263"/>
      <point x="65" y="251"/>
      <point x="65" y="228" type="curve" smooth="yes"/>
      <point x="65" y="207"/>
      <point x="85" y="197"/>
    </contour>
  </outline>
</glyph>
<glyph name="lozenge" format="1">
  <advance width="489"/>
  <unicode hex="25CA"/>
  <outline>
    <contour>
      <point x="377" y="475" type="line" smooth="yes"/>
      <point x="364" y="509"/>
      <point x="322" y="525"/>
      <point x="294" y="482" type="curve" smooth="yes"/>
      <point x="237" y="396"/>
      <point x="190" y="329"/>
      <point x="140" y="253" type="curve"/>
      <point x="229" y="29" type="line" smooth="yes"/>
      <point x="243" y="-5"/>
      <point x="284" y="-21"/>
      <point x="312" y="22" type="curve" smooth="yes"/>
      <point x="369" y="109"/>
      <point x="414" y="172"/>
      <point x="464" y="248" type="curve"/>
    </contour>
    <contour>
      <point x="212" y="253" type="line"/>
      <point x="251" y="313"/>
      <point x="292" y="375"/>
      <point x="323" y="422" type="curve"/>
      <point x="387" y="248" type="line"/>
      <point x="347" y="188"/>
      <point x="314" y="125"/>
      <point x="284" y="78" type="curve"/>
    </contour>
  </outline>
</glyph>
